# xmcd
#
# Track frame offsets:
#	150
#	14530
#	27686
#	41744
#	51474
#	62785
#	74797
#	86906
#	98545
#	111525
#	122702
#	133713
#	146111
#	157657
#	169473
#	180429
#	193963
#
# Disc length: 2745 seconds
#
# Revision: 3
# Processed by: cddbd v1.5.2PL0 Copyright (c) Steve Scherf et al.
# Submitted via: EZCDAudioConverter 2.1.7.1
#
DISCID=0b0ab711
DTITLE=V/A - Eccentric Soul: The Deep City Label
DYEAR=2006
DGENRE=Soul
TTITLE0=Them Two - Am I A Good Man
TTITLE1=The Moovers - Someone To Fulfill My Needs
TTITLE2=Helene Smith - I Am Controlled By Your Love
TTITLE3=Johnny K. Killens and The Dynamites - I Don't Need Help
TTITLE4=Freda Gray and The Rocketeers - Stay Away From My Johnny
TTITLE5=Helene Smith - Thrills And Chills
TTITLE6=Betty Wright - Paralyzed
TTITLE7=The Moovers - I Love You Baby
TTITLE8=Helene Smith - Pain In My Heart
TTITLE9=Paul Kelly - The Upset
TTITLE10=The Moovers - One Little Dance
TTITLE11=Betty Wright - Good Lovin'
TTITLE12=Helene Smith - Willing And Able
TTITLE13=Paul Kelly - It's My Baby
TTITLE14=Helene Smith - You Got To Do Your Share
TTITLE15=Frank Williams and The Rocketeers - Good Thing (Part 1)
TTITLE16=The Moovers - Darling I'll Go
EXTD=
EXTT0=
EXTT1=
EXTT2=
EXTT3=
EXTT4=
EXTT5=
EXTT6=
EXTT7=
EXTT8=
EXTT9=
EXTT10=
EXTT11=
EXTT12=
EXTT13=
EXTT14=
EXTT15=
EXTT16=
PLAYORDER=
